<svg xmlns="http://www.w3.org/2000/svg" viewBox="0 0 1801 2169" data-curve="cat amp=26; rot=7deg; terminals=point-symmetric">
<g transform="translate(140,1600) scale(1,-1)">
<path d="M290.32 87.99 L301.60 101.32L312.92 114.63L324.27 127.90L335.64 141.15L347.04 154.38L358.47 167.56L369.93 180.72L381.42 193.86L392.93 206.96L404.48 220.05L416.05 233.09L427.66 246.11L439.28 259.10L450.95 272.07L462.63 285.01L474.35 297.91L486.09 310.79L497.87 323.64L509.67 336.46L521.50 349.26L533.35 362.02L545.24 374.75L557.16 387.47L569.09 400.15L581.07 412.79L593.07 425.42L605.10 438.02L617.15 450.58L629.24 463.12L641.35 475.64L653.49 488.11L665.66 500.57L677.86 513.00L690.09 525.39L702.34 537.76L714.62 550.10L726.94 562.42L739.28 574.70L751.65 586.95L764.05 599.18L776.48 611.38L788.93 623.54L801.41 635.69L813.92 647.80L826.46 659.89L839.02 671.95L851.62 683.98L864.24 695.97L876.90 707.94L889.57 719.89L902.29 731.81L915.02 743.70L927.79 755.55L940.59 767.38L953.41 779.19L966.26 790.96L979.14 802.70L992.05 814.42L1004.99 826.12L1017.96 837.77L1030.94 849.40L1043.97 861.01L1057.01 872.58L1070.09 884.13L1083.21 895.65L1096.34 907.14L1109.51 918.60L1122.70 930.04L1135.92 941.44L1149.17 952.81L1162.45 964.16L1175.76 975.48Q1235.98 1031.84 1273.27 1078.27Q1316.13 1120.06 1338.92 1159.83Q1364.47 1198.40 1373.24 1240.05Q1382.83 1281.64 1368.26 1313.09Q1353.78 1344.61 1338.54 1372.21Q1323.33 1399.82 1331.37 1432.24Q1339.98 1472.73 1378.53 1498.16Q1415.19 1524.22 1465.47 1516.98Q1522.58 1508.76 1553.84 1459.90Q1585.11 1411.02 1572.54 1325.06Q1557.11 1222.86 1470.87 1135.23Q1384.64 1058.01 1235.09 954.52L1221.52 944.03L1208.48 932.85L1195.44 921.62L1182.44 910.36L1169.45 899.07L1156.51 887.76L1143.58 876.42L1130.68 865.04L1117.81 853.65L1104.97 842.23L1092.15 830.78L1079.36 819.30L1066.60 807.80L1053.87 796.27L1041.16 784.70L1028.48 773.12L1015.82 761.50L1003.20 749.87L990.61 738.20L978.03 726.51L965.48 714.78L952.97 703.04L940.48 691.26L928.02 679.46L915.58 667.63L903.17 655.77L890.80 643.89L878.44 631.98L866.11 620.03L853.81 608.08L841.53 596.08L829.30 584.06L817.08 572.01L804.89 559.94L792.72 547.84L780.59 535.71L768.48 523.56L756.39 511.37L744.34 499.16L732.31 486.93L720.31 474.66L708.34 462.37L696.39 450.05L684.46 437.71L672.57 425.34L660.72 412.94L648.87 400.51L637.06 388.06L625.27 375.58L613.52 363.07L601.79 350.53L590.10 337.97L578.41 325.39L566.77 312.77L555.15 300.12L543.56 287.46L531.99 274.76L520.45 262.03L508.94 249.28L497.45 236.51L486.00 223.70L474.57 210.87L463.17 198.00L451.79 185.12L440.44 172.20L429.12 159.26L417.82 146.29L406.56 133.29L395.32 120.27L384.11 107.22L372.92 94.14L361.77 81.04Q303.23 22.47 267.50 -28.70Q225.89 -76.68 203.56 -120.56Q177.55 -162.79 168.09 -206.22Q157.10 -249.13 171.38 -280.57Q185.49 -312.13 200.43 -339.72Q215.32 -367.36 204.83 -400.63Q192.74 -441.63 147.10 -466.56Q108.78 -492.77 57.82 -485.95Q0.04 -478.14 -31.92 -429.69Q-63.86 -381.24 -51.97 -295.68Q-37.23 -193.89 53.20 -109.91Q140.99 -26.93 290.32 87.99ZM1024.88 314.76Q1026.45 353.65 1017.21 382.80Q1007.97 411.97 998.74 440.56Q989.50 469.20 991.07 505.05Q992.38 536.49 1009.84 565.35Q1027.31 594.22 1059.15 612.72Q1091.00 631.18 1134.10 630.80Q1193.38 630.42 1229.22 594.18Q1265.06 558.07 1262.74 486.71Q1259.68 385.19 1214.70 293.30Q1169.71 201.41 1088.00 130.35Q1006.29 59.30 892.55 18.43Q778.81 -22.44 638.82 -22.44Q460.41 -22.44 342.40 48.82Q224.39 120.08 176.44 247.83Q128.49 375.59 159.82 544.19Q183.89 671.10 246.13 777.13Q308.36 885.72 399.36 970.23Q490.35 1058.40 602.20 1112.10Q714.04 1157.43 836.96 1150.21Q942.44 1138.36 1020.39 1095.31Q1098.33 1053.83 1139.97 993.12Q1159.95 964.24 1169.51 933.29 L1091.70 894.05L1078.59 882.87L1065.51 871.63L1052.46 860.33L1039.44 848.96L1026.45 837.52L1013.48 826.01Q935.00 872.97 879.40 1024.92 Q848.54 1081.18 783.41 1086.63Q712.26 1089.35 646.58 1030.65Q580.90 967.91 530.47 849.14Q480.04 733.88 455.20 573.22Q428.10 402.71 456.15 288.22Q484.21 173.86 554.70 116.36Q625.19 58.85 725.34 58.85Q786.78 58.85 840.25 78.53Q893.73 98.21 934.78 132.97Q975.83 167.73 999.56 214.33Q1023.30 260.92 1024.88 314.76Z" fill="#AC5230" stroke="#AC5230" stroke-width="16" stroke-linejoin="round"/>
</g></svg>